<svg xmlns="http://www.w3.org/2000/svg" viewBox="0 0 100 125" x="0px" y="0px"><title>IOS__BASIC_ICONS_2</title><path d="M66.42816,14.96259,57.08008.94043,52.91992,3.71387l7.50476,11.2572-20.90075.02942L47.04834,3.71387,42.88818.94043,33.50916,15.009,0,15.05615,14.23285,81.04047a5.00015,5.00015,0,0,0,4.8866,3.9458l61.833.01288h.001a5.00017,5.00017,0,0,0,4.8902-3.95783L99.936,14.91541Zm27.32819,4.96154-1.11164,5.216H7.29016L6.19165,20.04742Zm-12.80286,60.075-61.833-.01288L8.36865,30.14014H91.57916Z"/><rect x="25" y="40" width="5" height="5"/><rect x="39.96802" y="40" width="5" height="5"/><rect x="55" y="40" width="5" height="5"/><rect x="70" y="40" width="5" height="5"/><rect x="25" y="50" width="5" height="5"/><rect x="39.96802" y="50" width="5" height="5"/><rect x="55" y="50" width="5" height="5"/><rect x="70" y="50" width="5" height="5"/><rect x="25" y="60" width="5" height="5"/><rect x="39.96802" y="60" width="5" height="5"/><rect x="55" y="60" width="5" height="5"/><rect x="70" y="60" width="5" height="5"/><rect x="25" y="70" width="5" height="5"/><rect x="39.96802" y="70" width="5" height="5"/><rect x="55" y="70" width="5" height="5"/><rect x="70" y="70" width="5" height="5"/><text x="0" y="115" fill="#000000" font-size="5px" font-weight="bold" font-family="'Helvetica Neue', Helvetica, Arial-Unicode, Arial, Sans-serif">Created by Postcat</text><text x="0" y="120" fill="#000000" font-size="5px" font-weight="bold" font-family="'Helvetica Neue', Helvetica, Arial-Unicode, Arial, Sans-serif">from the Noun Project</text></svg>